<?xml version="1.0" encoding="UTF-8" standalone="no" ?>
<!DOCTYPE svg PUBLIC "-//W3C//DTD SVG 1.1//EN" "http://www.w3.org/Graphics/SVG/1.1/DTD/svg11.dtd">
<svg xmlns="http://www.w3.org/2000/svg" xmlns:xlink="http://www.w3.org/1999/xlink" version="1.1" width="1080" height="1080" viewBox="0 0 1080 1080" xml:space="preserve">
<desc>Created with Fabric.js 5.2.4</desc>
<defs>
</defs>
<rect x="0" y="0" width="100%" height="100%" fill="transparent"></rect>
<g transform="matrix(1 0 0 1 540 540)" id="cb8ecb73-539f-407e-a2ce-7bde7d2616dd"  >
<rect style="stroke: none; stroke-width: 1; stroke-dasharray: none; stroke-linecap: butt; stroke-dashoffset: 0; stroke-linejoin: miter; stroke-miterlimit: 4; fill: rgb(255,255,255); fill-rule: nonzero; opacity: 1; visibility: hidden;" vector-effect="non-scaling-stroke"  x="-540" y="-540" rx="0" ry="0" width="1080" height="1080" />
</g>
<g transform="matrix(1 0 0 1 540 540)" id="82aaf720-a4cb-4b50-85c8-70ac9783d647"  >
</g>
<g transform="matrix(1 0 0 1 540 540)"  >
<g style="" vector-effect="non-scaling-stroke"   >
		<g transform="matrix(33.33 0 0 33.33 0 0)" id="view-box"  >
<rect style="stroke: none; stroke-width: 1; stroke-dasharray: none; stroke-linecap: butt; stroke-dashoffset: 0; stroke-linejoin: miter; stroke-miterlimit: 4; fill: none; fill-rule: nonzero; opacity: 1;" vector-effect="non-scaling-stroke"  x="-12" y="-12" rx="0" ry="0" width="24" height="24" />
</g>
		<g transform="matrix(33.33 0 0 33.33 -0.07 4.07)" id="Shape"  >
<path style="stroke: none; stroke-width: 1; stroke-dasharray: none; stroke-linecap: butt; stroke-dashoffset: 0; stroke-linejoin: miter; stroke-miterlimit: 4; fill: rgb(20,17,36); fill-rule: nonzero; opacity: 1;" vector-effect="non-scaling-stroke"  transform=" translate(-8.75, -9.87)" d="M 6 17 L 6 16.5 L 2.25 16.5 C 1.0080445018904662 16.498347362412883 0.0016526375871177557 15.491955498109535 0 14.25 L 0 13.868 C -0.003998889895648815 12.897433907930504 0.5450238145472283 12.009297533040222 1.4149999999999985 11.579 C 1.8027371592017039 11.385092003282903 2.0620670063885496 11.003858198732313 2.0999999999999996 10.572 L 2.5460000000000003 5.661999999999999 C 2.834472104556233 2.4529438998768702 5.524004157537667 -0.005662579759817987 8.746000000000002 -0.005662579759817987 C 11.967995842462336 -0.005662579759817987 14.657527895443767 2.452943899876866 14.946000000000002 5.661999999999995 L 15.392000000000001 10.572 C 15.433035028812466 11.00253071131654 15.692009194757711 11.381931639559937 16.078000000000003 11.576999999999998 C 16.948634835949274 12.00752626675933 17.498627599984488 12.895737430116618 17.496000000000002 13.866999999999997 L 17.496000000000002 14.248999999999997 C 17.494897306361572 15.491183649755492 16.4881836497555 16.49789730636157 15.246000000000002 16.498999999999995 L 11.5 16.498999999999995 L 11.5 17 C 11.5 18.518783062034682 10.268783062034682 19.75 8.75 19.75 C 7.231216937965318 19.75 6 18.518783062034682 6 17 Z M 7.5 17 C 7.5 17.69035593728849 8.059644062711508 18.25 8.75 18.25 C 9.440355937288492 18.25 10 17.69035593728849 10 17 L 10 16.5 L 7.5 16.5 Z M 4.045 5.8 L 3.6 10.708 C 3.5160463309927725 11.658203754768682 2.9436032701567765 12.496220995383656 2.089 12.920000000000002 C 1.7275849034059307 13.097937111281809 1.4990473119000525 13.466158120346456 1.5 13.869 L 1.5 14.251 C 1.5011010894917738 14.664594588450084 1.8364043105819945 14.999450738578851 2.25 15 L 15.25 15 C 15.663985166036511 14.999449120804295 15.999449120804295 14.663985166036511 16 14.25 L 16 13.868 C 16.00137135126861 13.466123869641958 15.77409049852778 13.098440851897406 15.414 12.92 C 14.558368218086756 12.496855068579531 13.984746438320112 11.658776219937648 13.9 10.708 L 13.456 5.8 C 13.23424463143896 3.3667022474155797 11.193881549455188 1.5038295115777327 8.750499999999999 1.5038295115777327 C 6.307118450544812 1.5038295115777327 4.2667553685610375 3.366702247415581 4.044999999999998 5.800000000000002 Z" stroke-linecap="round" />
</g>
</g>
</g>
<g transform="matrix(2.91 0 0 2.91 705.97 316.04)" id="815f164d-8f98-44f8-a546-1d21ce900444"  >
<circle style="stroke: rgb(0,0,0); stroke-width: 0; stroke-dasharray: none; stroke-linecap: butt; stroke-dashoffset: 0; stroke-linejoin: miter; stroke-miterlimit: 4; fill: rgb(255,129,0); fill-rule: nonzero; opacity: 1;" vector-effect="non-scaling-stroke"  cx="0" cy="0" r="35" />
</g>
</svg>